# xmcd
#
# Track frame offsets:
#	150
#	12817
#	23142
#	37262
#	54715
#	73765
#	90112
#	120300
#	131997
#	150950
#
# Disc length: 2207 seconds
#
# Revision: 1
# Processed by: cddbd v1.5PL3 Copyright (c) Steve Scherf et al.
# Submitted via: audiograbber 1.83.01
#
DISCID=78089d0a
DTITLE=Various Artist - Lounging With Fairmont - A Century Of Style
DYEAR=2004
DGENRE=Lounge
TTITLE0=Vic Damone - Almost Like Being In Love
TTITLE1=Lambert, Hendricks and Ross - Twisted
TTITLE2=Aretha Franklin - It Ain't Necessarily So
TTITLE3=Patricia Kass - La Mer
TTITLE4=David Johanns - Fly Me To The Moon
TTITLE5=Buddy Greco - The Lady Is A Tramp
TTITLE6=Bill Evans - Comrade Conrad
TTITLE7=George Benson - A Foggy Day
TTITLE8=Rosemary Clooney - Let's Face The Music And Dance
TTITLE9=David BruBeck Feat. Louis Armstrong - Summer Song
EXTD=Fairmont Hotel
EXTT0=
EXTT1=
EXTT2=
EXTT3=
EXTT4=
EXTT5=
EXTT6=
EXTT7=
EXTT8=
EXTT9=
PLAYORDER=
